<svg id="Layer_1" data-name="Layer 1" xmlns="http://www.w3.org/2000/svg" viewBox="0 0 1920 1080"><defs><style>.cls-1{fill:#fff;}.cls-2,.cls-3,.cls-6,.cls-7{fill:none;stroke-linecap:round;stroke-linejoin:round;}.cls-2,.cls-3{stroke:#101011;}.cls-2{stroke-width:1.18px;}.cls-4{fill:#6dda5f;}.cls-5{fill:#6c6;}.cls-6{stroke:#06dd5f;}.cls-7{stroke:#6dda5f;}</style></defs><title>Artboard 1 copy 5</title><rect class="cls-1" width="1915" height="1086"/><path class="cls-2" d="M118.52,581a11.66,11.66,0,1,1-11.66-11.67A11.66,11.66,0,0,1,118.52,581Z"/><circle class="cls-2" cx="181.5" cy="580.98" r="11.66"/><circle class="cls-2" cx="256.14" cy="580.98" r="11.66"/><circle class="cls-2" cx="330.78" cy="580.98" r="11.66"/><circle class="cls-2" cx="405.42" cy="580.98" r="11.66"/><circle class="cls-2" cx="480.06" cy="580.98" r="11.66"/><circle class="cls-2" cx="554.7" cy="580.98" r="11.66"/><path class="cls-2" d="M641,581a11.67,11.67,0,1,1-11.66-11.67A11.66,11.66,0,0,1,641,581Z"/><path class="cls-2" d="M118.52,510.53a11.66,11.66,0,1,1-11.66-11.66A11.66,11.66,0,0,1,118.52,510.53Z"/><circle class="cls-2" cx="181.5" cy="510.53" r="11.66"/><circle class="cls-2" cx="256.14" cy="510.53" r="11.66"/><circle class="cls-2" cx="330.78" cy="510.53" r="11.66"/><circle class="cls-2" cx="405.42" cy="510.53" r="11.66"/><circle class="cls-2" cx="480.06" cy="510.53" r="11.66"/><circle class="cls-2" cx="554.7" cy="510.53" r="11.66"/><path class="cls-2" d="M641,510.53a11.67,11.67,0,1,1-11.66-11.66A11.66,11.66,0,0,1,641,510.53Z"/><path class="cls-2" d="M118.52,440.08a11.66,11.66,0,1,1-11.66-11.66A11.67,11.67,0,0,1,118.52,440.08Z"/><circle class="cls-2" cx="181.5" cy="440.08" r="11.66"/><circle class="cls-2" cx="256.14" cy="440.08" r="11.66"/><circle class="cls-2" cx="330.78" cy="440.08" r="11.66"/><circle class="cls-2" cx="405.42" cy="440.08" r="11.66"/><circle class="cls-2" cx="480.06" cy="440.08" r="11.66"/><circle class="cls-2" cx="554.7" cy="440.08" r="11.66"/><path class="cls-2" d="M641,440.08a11.67,11.67,0,1,1-11.66-11.66A11.67,11.67,0,0,1,641,440.08Z"/><path class="cls-2" d="M118.52,369.64A11.66,11.66,0,1,1,106.86,358,11.66,11.66,0,0,1,118.52,369.64Z"/><path class="cls-2" d="M193.16,369.64A11.66,11.66,0,1,1,181.5,358,11.66,11.66,0,0,1,193.16,369.64Z"/><path class="cls-2" d="M267.8,369.64A11.66,11.66,0,1,1,256.14,358,11.66,11.66,0,0,1,267.8,369.64Z"/><path class="cls-2" d="M342.44,369.64A11.66,11.66,0,1,1,330.78,358,11.66,11.66,0,0,1,342.44,369.64Z"/><path class="cls-2" d="M417.08,369.64A11.66,11.66,0,1,1,405.42,358,11.66,11.66,0,0,1,417.08,369.64Z"/><path class="cls-2" d="M491.72,369.64A11.66,11.66,0,1,1,480.06,358,11.66,11.66,0,0,1,491.72,369.64Z"/><path class="cls-2" d="M566.36,369.64A11.66,11.66,0,1,1,554.7,358,11.66,11.66,0,0,1,566.36,369.64Z"/><path class="cls-2" d="M641,369.64A11.67,11.67,0,1,1,629.34,358,11.66,11.66,0,0,1,641,369.64Z"/><path class="cls-2" d="M118.52,299.19a11.66,11.66,0,1,1-11.66-11.66A11.66,11.66,0,0,1,118.52,299.19Z"/><path class="cls-2" d="M193.16,299.19a11.66,11.66,0,1,1-11.66-11.66A11.66,11.66,0,0,1,193.16,299.19Z"/><path class="cls-2" d="M267.8,299.19a11.66,11.66,0,1,1-11.66-11.66A11.66,11.66,0,0,1,267.8,299.19Z"/><path class="cls-2" d="M342.44,299.19a11.66,11.66,0,1,1-11.66-11.66A11.66,11.66,0,0,1,342.44,299.19Z"/><path class="cls-2" d="M417.08,299.19a11.66,11.66,0,1,1-11.66-11.66A11.66,11.66,0,0,1,417.08,299.19Z"/><path class="cls-2" d="M491.72,299.19a11.66,11.66,0,1,1-11.66-11.66A11.66,11.66,0,0,1,491.72,299.19Z"/><path class="cls-2" d="M566.36,299.19a11.66,11.66,0,1,1-11.66-11.66A11.66,11.66,0,0,1,566.36,299.19Z"/><path class="cls-2" d="M641,299.19a11.67,11.67,0,1,1-11.66-11.66A11.66,11.66,0,0,1,641,299.19Z"/><path class="cls-2" d="M118.52,228.75a11.66,11.66,0,1,1-11.66-11.67A11.66,11.66,0,0,1,118.52,228.75Z"/><path class="cls-2" d="M193.16,228.75a11.66,11.66,0,1,1-11.66-11.67A11.66,11.66,0,0,1,193.16,228.75Z"/><path class="cls-2" d="M267.8,228.75a11.66,11.66,0,1,1-11.66-11.67A11.66,11.66,0,0,1,267.8,228.75Z"/><path class="cls-2" d="M342.44,228.75a11.66,11.66,0,1,1-11.66-11.67A11.66,11.66,0,0,1,342.44,228.75Z"/><path class="cls-2" d="M417.08,228.75a11.66,11.66,0,1,1-11.66-11.67A11.66,11.66,0,0,1,417.08,228.75Z"/><path class="cls-2" d="M491.72,228.75a11.66,11.66,0,1,1-11.66-11.67A11.66,11.66,0,0,1,491.72,228.75Z"/><path class="cls-2" d="M566.36,228.75a11.66,11.66,0,1,1-11.66-11.67A11.66,11.66,0,0,1,566.36,228.75Z"/><path class="cls-2" d="M641,228.75a11.67,11.67,0,1,1-11.66-11.67A11.66,11.66,0,0,1,641,228.75Z"/><path class="cls-2" d="M118.52,158.3a11.66,11.66,0,1,1-11.66-11.66A11.66,11.66,0,0,1,118.52,158.3Z"/><circle class="cls-2" cx="181.5" cy="158.3" r="11.66"/><circle class="cls-2" cx="256.14" cy="158.3" r="11.66"/><circle class="cls-2" cx="330.78" cy="158.3" r="11.66"/><circle class="cls-2" cx="405.42" cy="158.3" r="11.66"/><circle class="cls-2" cx="480.06" cy="158.3" r="11.66"/><circle class="cls-2" cx="554.7" cy="158.3" r="11.66"/><path class="cls-2" d="M641,158.3a11.67,11.67,0,1,1-11.66-11.66A11.66,11.66,0,0,1,641,158.3Z"/><path class="cls-2" d="M118.52,87.85a11.66,11.66,0,1,1-11.66-11.66A11.67,11.67,0,0,1,118.52,87.85Z"/><circle class="cls-2" cx="181.5" cy="87.85" r="11.66"/><circle class="cls-2" cx="256.14" cy="87.85" r="11.66"/><circle class="cls-2" cx="330.78" cy="87.85" r="11.66"/><circle class="cls-2" cx="405.42" cy="87.85" r="11.66"/><circle class="cls-2" cx="480.06" cy="87.85" r="11.66"/><circle class="cls-2" cx="554.7" cy="87.85" r="11.66"/><path class="cls-2" d="M641,87.85a11.67,11.67,0,1,1-11.66-11.66A11.67,11.67,0,0,1,641,87.85Z"/><polyline class="cls-3" points="271.35 819.07 287.37 827.89 303.4 819.07 319.43 827.89 335.45 819.07 351.48 827.89 367.51 819.07"/><polyline class="cls-3" points="271.35 826.75 287.37 835.57 303.4 826.75 319.43 835.57 335.45 826.75 351.48 835.57 367.51 826.75"/><polyline class="cls-3" points="271.35 834.43 287.37 843.25 303.4 834.43 319.43 843.25 335.45 834.43 351.48 843.25 367.51 834.43"/><polyline class="cls-3" points="271.35 842.11 287.37 850.93 303.4 842.11 319.43 850.93 335.45 842.11 351.48 850.93 367.51 842.11"/><polygon class="cls-4" points="1713.82 868.06 1736.43 828.9 1759.04 868.06 1713.82 868.06"/><polygon class="cls-4" points="1713.82 811.46 1736.43 772.3 1759.04 811.46 1713.82 811.46"/><polygon class="cls-4" points="1713.82 754.87 1736.43 715.7 1759.04 754.87 1713.82 754.87"/><polygon class="cls-4" points="1713.82 698.27 1736.43 659.11 1759.04 698.27 1713.82 698.27"/><polygon class="cls-4" points="1713.82 641.67 1736.43 602.51 1759.04 641.67 1713.82 641.67"/><polygon class="cls-5" points="1420.54 123.29 1369.14 152.95 1369.14 134.1 1387.89 123.29 1369.14 112.47 1369.14 93.62 1420.54 123.29"/><polygon class="cls-5" points="1496.93 123.29 1445.53 152.95 1445.53 134.1 1464.29 123.29 1445.53 112.47 1445.53 93.62 1496.93 123.29"/><polygon class="cls-5" points="1573.32 123.29 1521.92 152.95 1521.92 134.1 1540.68 123.29 1521.92 112.47 1521.92 93.62 1573.32 123.29"/><polygon class="cls-5" points="1649.71 123.29 1598.32 152.95 1598.32 134.1 1617.07 123.29 1598.32 112.47 1598.32 93.62 1649.71 123.29"/><polyline class="cls-6" points="232 755.42 221.4 774.68 232 793.94 221.4 813.21 232 832.47 221.4 851.73 232 871"/><polyline class="cls-6" points="222.77 755.42 212.17 774.68 222.77 793.94 212.17 813.21 222.77 832.47 212.17 851.73 222.77 871"/><polyline class="cls-6" points="213.54 755.42 202.94 774.68 213.54 793.94 202.94 813.21 213.54 832.47 202.94 851.73 213.54 871"/><polyline class="cls-6" points="204.31 755.42 193.71 774.68 204.31 793.94 193.71 813.21 204.31 832.47 193.71 851.73 204.31 871"/><path class="cls-7" d="M379.51,916c13,11.63,28.85,11.63,41.9,0h0c13-11.63,28.85-11.63,41.89,0h0c13.05,11.64,28.86,11.64,41.9,0h0c13.05-11.63,28.86-11.63,41.9,0h0c13,11.63,28.85,11.63,41.89,0"/></svg>