<?xml version="1.0" standalone="no"?>
<!DOCTYPE svg PUBLIC "-//W3C//DTD SVG 20010904//EN"
 "http://www.w3.org/TR/2001/REC-SVG-20010904/DTD/svg10.dtd">
<svg version="1.0" xmlns="http://www.w3.org/2000/svg"
 width="500.000000pt" height="500.000000pt" viewBox="0 0 500.000000 500.000000"
 preserveAspectRatio="xMidYMid meet">

<g transform="translate(0.000000,500.000000) scale(0.100000,-0.100000)"
fill="#000000" stroke="none">
<path d="M495 3050 c16 -7 388 -80 409 -80 3 0 6 -83 6 -184 l0 -185 38 13 37
13 3 216 2 217 -257 -1 c-159 0 -250 -4 -238 -9z"/>
<path d="M1806 2839 c-17 -13 -26 -30 -26 -49 0 -31 39 -70 70 -70 25 0 60 42
60 72 0 27 -40 68 -65 68 -7 0 -24 -9 -39 -21z"/>
<path d="M1053 2843 c-49 -6 -45 -38 5 -48 48 -9 72 -31 72 -66 0 -68 -137
-134 -374 -181 -145 -28 -352 -31 -408 -6 -32 14 -38 22 -38 49 0 37 53 91
107 111 42 15 45 45 6 46 -40 1 -87 -18 -74 -31 14 -14 -30 -47 -62 -47 -32 0
-57 -9 -57 -21 0 -5 9 -9 21 -9 41 0 10 -31 -56 -56 -16 -7 -14 -9 15 -12 52
-5 68 -37 25 -48 -39 -10 -17 -26 25 -19 23 4 47 2 60 -5 21 -11 21 -12 3 -25
-17 -13 -15 -14 15 -15 18 0 41 4 50 9 24 12 82 2 82 -15 0 -19 59 -18 84 1
22 17 92 20 101 6 8 -13 76 -2 97 16 22 19 82 32 100 22 20 -11 88 9 88 25 0
17 51 36 97 36 44 0 82 18 62 31 -21 12 16 36 68 44 45 6 69 25 34 25 -24 0
-25 4 -11 31 6 10 19 19 28 19 10 0 27 7 38 15 18 13 17 14 -17 15 -46 0 -60
25 -24 42 35 16 22 26 -27 21 -43 -4 -87 13 -60 24 6 2 10 9 6 14 -5 9 -20 9
-81 2z"/>
<path d="M3460 2746 l0 -105 -46 26 c-38 21 -55 25 -104 21 -102 -7 -168 -79
-177 -192 -7 -80 9 -127 59 -182 63 -68 141 -82 222 -39 44 23 46 24 46 5 0
-17 7 -20 50 -20 l50 0 0 295 0 295 -50 0 -50 0 0 -104z m-52 -166 c90 -55 73
-201 -27 -231 -81 -24 -156 43 -148 134 8 96 96 145 175 97z"/>
<path d="M1350 2780 l0 -50 70 0 70 0 0 -235 0 -235 55 0 55 0 0 235 0 235 70
0 70 0 0 50 0 50 -195 0 -195 0 0 -50z"/>
<path d="M1015 2780 c-2 -4 10 -10 28 -13 17 -3 41 -9 52 -13 15 -5 17 -4 9 5
-14 16 -82 32 -89 21z"/>
<path d="M1230 2770 c-8 -5 -12 -11 -9 -14 2 -3 11 -1 19 4 8 5 12 11 9 14 -2
3 -11 1 -19 -4z"/>
<path d="M409 2680 c-19 -10 -41 -26 -48 -34 -8 -9 7 -5 35 11 58 31 59 32 53
37 -2 2 -20 -4 -40 -14z"/>
<path d="M1215 2690 c-7 -12 2 -12 30 0 19 8 19 9 -2 9 -12 1 -25 -3 -28 -9z"/>
<path d="M824 2676 c-9 -24 4 -48 23 -44 12 2 18 12 18 28 0 29 -32 41 -41 16z"/>
<path d="M2096 2665 c-44 -30 -46 -30 -46 -5 0 17 -7 20 -50 20 l-50 0 0 -210
0 -210 50 0 50 0 0 103 c1 56 5 122 9 147 16 78 93 117 137 69 16 -18 20 -42
24 -168 l5 -146 53 -3 52 -3 0 133 c0 115 3 137 20 165 36 60 115 56 137 -7 7
-20 12 -91 12 -162 l1 -128 50 0 50 0 -1 158 c0 94 -5 171 -12 192 -17 49 -67
80 -129 80 -54 0 -80 -10 -120 -47 l-26 -25 -11 21 c-30 55 -142 69 -205 26z"/>
<path d="M2761 2668 c-53 -26 -95 -82 -111 -148 -22 -91 12 -181 86 -233 32
-23 56 -30 107 -34 58 -5 73 -2 120 21 32 15 64 41 80 63 l27 38 -55 3 c-44 2
-61 -1 -82 -17 -51 -41 -148 -20 -178 39 -8 16 -15 31 -15 35 0 3 76 5 169 5
131 0 170 3 174 13 10 26 -13 112 -41 151 -57 83 -185 112 -281 64z m141 -68
c34 -10 78 -50 78 -71 0 -5 -52 -9 -115 -9 -89 0 -115 3 -115 13 0 19 43 57
76 67 39 11 34 11 76 0z"/>
<path d="M3732 2669 c-196 -99 -140 -396 79 -417 138 -13 249 100 236 241 -6
70 -39 125 -98 164 -58 38 -155 44 -217 12z m166 -95 c13 -9 30 -32 39 -52 42
-100 -45 -202 -144 -169 -100 33 -109 181 -13 230 39 20 79 17 118 -9z"/>
<path d="M4225 2673 c-136 -71 -172 -233 -78 -343 124 -145 350 -82 386 108
17 86 -43 195 -127 233 -50 23 -140 24 -181 2z m141 -89 c67 -32 87 -135 38
-193 -40 -48 -92 -57 -152 -28 -75 36 -67 188 11 222 42 19 62 18 103 -1z"/>
<path d="M4701 2664 c-30 -25 -31 -25 -31 -5 0 18 -6 21 -45 21 l-45 0 0 -210
0 -210 50 0 50 0 0 124 c0 69 4 136 9 149 14 37 51 67 83 67 27 0 28 2 28 45
0 45 0 45 -34 45 -22 0 -45 -9 -65 -26z"/>
<path d="M1790 2470 l0 -210 55 0 55 0 0 210 0 210 -55 0 -55 0 0 -210z"/>
<path d="M1220 2635 c-7 -8 -27 -15 -44 -15 -31 0 -65 -15 -55 -24 2 -3 25 0
49 6 45 11 79 32 68 43 -3 3 -11 -1 -18 -10z"/>
<path d="M218 2618 c9 -9 15 -9 24 0 9 9 7 12 -12 12 -19 0 -21 -3 -12 -12z"/>
<path d="M1090 2555 c-14 -8 -42 -14 -62 -15 -46 0 -68 -8 -68 -26 0 -18 -62
-33 -129 -31 -40 1 -57 -3 -66 -16 -7 -10 -33 -20 -59 -23 -27 -4 -46 -12 -46
-19 0 -19 81 -7 98 13 9 12 32 17 82 18 l70 2 0 -54 c0 -30 -1 -54 -3 -54 -15
0 -451 -91 -455 -95 -3 -3 119 -5 271 -5 l277 0 0 139 0 140 33 -6 c35 -5 97
18 97 37 0 13 -10 12 -40 -5z"/>
<path d="M186 2540 c7 -7 19 -7 35 -1 23 9 22 10 -10 10 -24 1 -32 -2 -25 -9z"/>
<path d="M209 2477 c4 -4 30 -4 57 2 l49 9 -57 -1 c-32 -1 -54 -5 -49 -10z"/>
<path d="M380 2449 c-14 -6 -41 -8 -60 -4 -23 3 -30 2 -20 -4 8 -5 24 -10 35
-11 29 -4 104 11 111 21 7 12 -35 10 -66 -2z"/>
<path d="M585 2453 c-11 -3 -24 -9 -29 -14 -6 -5 -32 -9 -58 -9 -26 0 -48 -4
-48 -10 0 -15 93 -11 114 5 11 8 32 15 48 15 15 0 28 5 28 10 0 10 -20 11 -55
3z"/>
</g>
</svg>
